<svg width="627" height="699" viewBox="0 0 627 699" fill="none" xmlns="http://www.w3.org/2000/svg">
<g id="undraw_woman_mevk 1" clip-path="url(#clip0)">
<path id="Vector" d="M304.58 311.16C304.7 310.733 304.8 310.303 304.88 309.87C304.88 309.71 304.88 309.55 304.95 309.4C305.02 309.25 305.04 308.8 305.06 308.5C305.08 308.2 305.06 308.08 305.06 307.87C305.06 307.66 305.06 307.35 305.06 307.09C305.06 306.83 305.06 306.67 305.06 306.47C305.06 306.27 305.06 305.91 305 305.63C304.94 305.35 304.95 305.28 304.93 305.11C304.93 304.79 304.83 304.47 304.77 304.11V303.96L282.47 203.44C268.01 205.44 275.7 203.68 268.01 205.44C260.32 207.2 268.01 205.44 254.53 209.82L260.14 235.1L240.06 204.95C238.927 203.21 237.427 201.74 235.665 200.643C233.902 199.546 231.921 198.849 229.86 198.6C224.876 198.067 219.944 197.134 215.11 195.81C211.691 194.82 208.149 194.319 204.59 194.32H170.59C167.027 194.317 163.482 194.819 160.06 195.81C155.226 197.134 150.294 198.067 145.31 198.6C143.249 198.849 141.268 199.546 139.505 200.643C137.743 201.74 136.243 203.21 135.11 204.95L83.54 282.45L33.74 216.65C21.83 224.46 28.05 219.53 21.83 224.46C15.61 229.39 21.83 224.46 11.11 234.55L72.9 316.16C74.0892 317.731 75.5926 319.036 77.3143 319.993C79.0361 320.951 80.9384 321.539 82.9 321.72H83.24H84.12H84.88H85.35C85.73 321.72 86.12 321.64 86.51 321.58H86.56C88.5263 321.27 90.4057 320.552 92.0767 319.47C93.7476 318.388 95.1728 316.967 96.26 315.3L131.12 264.3L136.37 348.4C136.37 361.07 147.53 371.4 159.94 371.4H215.25C227.66 371.4 237.82 361.04 237.82 348.4L242.12 264.3L278.93 315.3C278.93 315.36 279.02 315.42 279.06 315.49C279.1 315.56 279.29 315.8 279.41 315.96C279.53 316.12 279.78 316.46 279.99 316.7C279.99 316.76 280.09 316.81 280.13 316.87C281.617 318.577 283.489 319.907 285.59 320.75C285.645 320.765 285.698 320.785 285.75 320.81C286.11 320.94 286.47 321.07 286.84 321.18C287.024 321.236 287.211 321.283 287.4 321.32L288.15 321.5C288.39 321.55 288.64 321.58 288.89 321.62L289.51 321.7H290.22H290.93H291.48C291.79 321.7 292.09 321.7 292.4 321.64L292.74 321.59C293.12 321.59 293.51 321.47 293.89 321.39H294C294.433 321.291 294.861 321.168 295.28 321.02H295.33C296.537 320.612 297.684 320.043 298.74 319.33C301.581 317.378 303.634 314.478 304.53 311.15L304.58 311.16Z" fill="url(#paint0_linear)"/>
<path id="Vector_2" d="M166.85 628.95H139.14V663.48H166.85V628.95Z" fill="url(#paint1_linear)"/>
<path id="Vector_3" d="M235.66 628.95H207.95V663.48H235.66V628.95Z" fill="url(#paint2_linear)"/>
<path id="Vector_4" d="M211.17 330.33H165.8C136.64 330.33 126.8 353.94 126.8 381.82L135.6 640.62H175.43V437.16C175.452 434.001 176.631 430.959 178.745 428.611C180.859 426.264 183.76 424.772 186.9 424.42C194.79 423.52 201.56 429.42 201.56 436.82V640.62H241.38L251.75 381.82C251.74 353.94 240.32 330.33 211.17 330.33Z" fill="url(#paint3_linear)"/>
<path id="Vector_5" d="M166.85 663.49V698.32H127.46C126.617 698.359 125.783 698.139 125.069 697.689C124.356 697.238 123.798 696.58 123.471 695.802C123.144 695.025 123.063 694.165 123.24 693.341C123.417 692.516 123.843 691.765 124.46 691.19C132.37 683.91 142.46 672.44 139.14 663.49" fill="url(#paint4_linear)"/>
<path id="Vector_6" d="M208.39 663.49V698.32H247.79C248.633 698.359 249.467 698.139 250.181 697.689C250.894 697.238 251.452 696.58 251.779 695.802C252.106 695.025 252.187 694.165 252.01 693.341C251.833 692.516 251.407 691.765 250.79 691.19C242.89 683.91 232.79 672.44 236.11 663.49" fill="url(#paint5_linear)"/>
<path id="Vector_7" d="M167.3 625.82H141.08V659.99H167.3V625.82Z" fill="#FFD9CB"/>
<path id="Vector_8" d="M232.41 625.82H206.19V659.99H232.41V625.82Z" fill="#FFD9CB"/>
<path id="Vector_9" d="M209.23 330.33H166.3C138.71 330.33 129.39 353.69 129.39 381.28L137.72 637.37H175.41V436.07C175.379 433.011 176.463 430.045 178.46 427.728C180.457 425.411 183.23 423.901 186.26 423.48C187.997 423.271 189.758 423.432 191.428 423.953C193.098 424.474 194.639 425.342 195.949 426.501C197.26 427.66 198.31 429.084 199.03 430.678C199.751 432.272 200.126 434.001 200.13 435.75V637.37H237.82L247.62 381.28C247.62 353.69 236.82 330.33 209.23 330.33Z" fill="#212121"/>
<path id="Vector_10" d="M167.3 659.99V694.46H130.06C129.242 694.459 128.444 694.213 127.767 693.754C127.09 693.295 126.566 692.645 126.261 691.885C125.957 691.126 125.887 690.294 126.059 689.495C126.232 688.695 126.64 687.966 127.23 687.4C134.71 680.2 144.23 668.85 141.12 659.99" fill="#212121"/>
<path id="Vector_11" d="M206.61 659.99V694.46H243.89C244.708 694.459 245.506 694.213 246.183 693.754C246.86 693.295 247.384 692.645 247.689 691.885C247.993 691.126 248.063 690.294 247.891 689.495C247.718 688.695 247.31 687.966 246.72 687.4C239.24 680.2 229.72 668.85 232.83 659.99" fill="#212121"/>
<path id="Vector_12" d="M188.06 206.64C242.217 206.64 286.12 160.382 286.12 103.32C286.12 46.2579 242.217 0 188.06 0C133.903 0 90 46.2579 90 103.32C90 160.382 133.903 206.64 188.06 206.64Z" fill="url(#paint6_linear)"/>
<path id="Vector_13" d="M188.06 201.49C239.516 201.49 281.23 157.538 281.23 103.32C281.23 49.1022 239.516 5.15002 188.06 5.15002C136.604 5.15002 94.89 49.1022 94.89 103.32C94.89 157.538 136.604 201.49 188.06 201.49Z" fill="#6C63FF"/>
<path id="Vector_14" d="M186.69 189.18C229.133 189.18 263.54 153.972 263.54 110.54C263.54 67.1084 229.133 31.9 186.69 31.9C144.247 31.9 109.84 67.1084 109.84 110.54C109.84 153.972 144.247 189.18 186.69 189.18Z" fill="#6C63FF"/>
<path id="Vector_15" opacity="0.3" d="M187.69 186.18C230.133 186.18 264.54 150.972 264.54 107.54C264.54 64.1084 230.133 28.9 187.69 28.9C145.247 28.9 110.84 64.1084 110.84 107.54C110.84 150.972 145.247 186.18 187.69 186.18Z" fill="black"/>
<path id="Vector_16" d="M256.309 152.714L243.628 197.202C242.951 199.577 244.327 202.05 246.701 202.727L264.368 207.762C266.742 208.439 269.215 207.063 269.892 204.689L282.573 160.201C283.25 157.827 281.874 155.353 279.499 154.677L261.833 149.641C259.459 148.964 256.986 150.34 256.309 152.714Z" fill="#BDBDBD"/>
<path id="Vector_17" d="M16.287 188.273L14.7629 189.049C13.7834 189.547 13.3934 190.745 13.8919 191.725L23.18 209.977C23.6785 210.957 24.8766 211.347 25.8561 210.848L27.3802 210.073C28.3597 209.575 28.7496 208.376 28.2512 207.397L18.963 189.144C18.4646 188.165 17.2665 187.775 16.287 188.273Z" fill="#FFCFBE"/>
<path id="Vector_18" d="M1.11722 197.246L0.262222 198.727C-0.287301 199.679 0.0388181 200.896 0.99062 201.446L18.3977 211.496C19.3495 212.045 20.5666 211.719 21.1161 210.767L21.9711 209.286C22.5206 208.335 22.1945 207.117 21.2427 206.568L3.83562 196.518C2.88382 195.968 1.66674 196.295 1.11722 197.246Z" fill="#FFCFBE"/>
<path id="Vector_19" d="M12.79 209.98C10.55 211.25 -1.14001 218.88 13.89 232.84C14.8119 233.69 16.0013 234.192 17.2534 234.26C18.5055 234.327 19.742 233.956 20.75 233.21L31.35 225.36C32.2699 224.679 32.9489 223.722 33.2887 222.629C33.6285 221.536 33.6114 220.363 33.24 219.28L30.24 210.44C29.798 209.148 29.0485 207.983 28.0561 207.046C27.0636 206.108 25.8581 205.426 24.5433 205.058C23.2285 204.69 21.8439 204.647 20.5089 204.933C19.1739 205.219 17.9285 205.825 16.88 206.7L13.59 209.45C13.3427 209.654 13.0745 209.832 12.79 209.98V209.98Z" fill="#FFCFBE"/>
<path id="Vector_20" d="M278.11 176.06H276.4C275.301 176.06 274.41 176.951 274.41 178.05V189.8C274.41 190.899 275.301 191.79 276.4 191.79H278.11C279.209 191.79 280.1 190.899 280.1 189.8V178.05C280.1 176.951 279.209 176.06 278.11 176.06Z" fill="#FFCFBE"/>
<path id="Vector_21" d="M264.51 188.31C264.51 188.31 244.73 188.65 257.32 213.6L278.32 209.32L280.55 188.32C280.612 187.828 280.551 187.328 280.373 186.865C280.194 186.402 279.903 185.991 279.527 185.668C279.15 185.345 278.7 185.12 278.215 185.014C277.73 184.908 277.227 184.924 276.75 185.06L264.51 188.31Z" fill="#FFCFBE"/>
<path id="Vector_22" d="M262.974 167.35L261.427 168.078C260.433 168.546 260.005 169.731 260.473 170.726L269.513 189.946C269.981 190.941 271.167 191.368 272.161 190.9L273.709 190.172C274.703 189.704 275.13 188.519 274.662 187.524L265.622 168.304C265.154 167.31 263.969 166.883 262.974 167.35Z" fill="#FFCFBE"/>
<path id="Vector_23" d="M259.282 170.442L257.735 171.169C256.74 171.637 256.313 172.823 256.781 173.817L264.37 189.952C264.838 190.946 266.023 191.373 267.018 190.905L268.565 190.178C269.56 189.71 269.987 188.524 269.519 187.53L261.93 171.395C261.462 170.401 260.277 169.974 259.282 170.442Z" fill="#FFCFBE"/>
<path id="Vector_24" d="M255.409 175.55L253.862 176.278C252.867 176.746 252.44 177.931 252.908 178.926L260.016 194.038C260.484 195.032 261.669 195.459 262.664 194.991L264.211 194.264C265.206 193.796 265.633 192.61 265.165 191.616L258.057 176.504C257.589 175.509 256.404 175.082 255.409 175.55Z" fill="#FFCFBE"/>
<path id="Vector_25" d="M252.242 182.083L250.694 182.81C249.7 183.278 249.273 184.464 249.74 185.458L255.784 198.308C256.252 199.302 257.437 199.729 258.432 199.262L259.979 198.534C260.974 198.066 261.401 196.881 260.933 195.886L254.889 183.036C254.422 182.042 253.236 181.615 252.242 182.083Z" fill="#FFCFBE"/>
<path id="Vector_26" d="M302.64 308.91C302.75 308.5 302.85 308.08 302.93 307.66C302.93 307.51 302.93 307.36 303 307.21C303.07 307.06 303.09 306.63 303.11 306.34C303.13 306.05 303.11 305.93 303.11 305.72C303.11 305.51 303.11 305.22 303.11 304.97C303.11 304.72 303.11 304.57 303.11 304.37C303.11 304.17 303.11 303.82 303.06 303.55C303.01 303.28 303.06 303.22 302.99 303.05C302.92 302.88 302.89 302.43 302.83 302.12C302.83 302.12 302.83 302.02 302.83 301.98L280.77 204.46C266.47 206.4 274.07 204.7 266.47 206.4C258.87 208.1 266.47 206.4 253.13 210.65L258.68 235.16L238.83 205.93C237.695 204.234 236.204 202.804 234.462 201.741C232.72 200.677 230.768 200.005 228.74 199.77C223.813 199.257 218.934 198.354 214.15 197.07C210.767 196.107 207.267 195.619 203.75 195.62H170.11C166.593 195.62 163.093 196.108 159.71 197.07C154.926 198.354 150.047 199.257 145.12 199.77C143.098 200.009 141.151 200.683 139.414 201.747C137.678 202.81 136.192 204.237 135.06 205.93L84.06 281.06L34.81 217.27C23.03 224.84 29.18 220.07 23.03 224.84C16.88 229.61 23.03 224.84 12.43 234.63L73.53 313.76C74.7154 315.294 76.2066 316.566 77.909 317.493C79.6115 318.421 81.4881 318.985 83.42 319.15C83.53 319.15 83.65 319.15 83.76 319.15H84.63H85.37H85.84C86.22 319.15 86.6 319.08 86.99 319.02H87.06C88.9938 318.726 90.8456 318.034 92.4981 316.988C94.1506 315.941 95.5678 314.563 96.66 312.94L133.06 259.21L137.23 345.02C137.248 350.936 139.607 356.604 143.791 360.786C147.975 364.968 153.644 367.324 159.56 367.34H214.25C220.166 367.324 225.835 364.968 230.019 360.786C234.203 356.604 236.562 350.936 236.58 345.02L240.74 259.21L277.26 312.96L277.4 313.14L277.74 313.59C277.92 313.84 278.11 314.09 278.31 314.32L278.46 314.48C279.938 316.138 281.784 317.425 283.85 318.24C283.905 318.255 283.958 318.275 284.01 318.3C284.37 318.43 284.73 318.56 285.09 318.66L285.64 318.8L286.38 318.97C286.62 319.02 286.87 319.05 287.11 319.08L287.73 319.16H288.44H289.13H289.68C289.98 319.16 290.29 319.16 290.59 319.1L290.92 319.05C291.3 319 291.68 318.94 292.06 318.86H292.17C292.59 318.76 293.02 318.64 293.44 318.51C294.633 318.119 295.766 317.567 296.81 316.87C299.61 315.004 301.644 312.193 302.54 308.95L302.64 308.91Z" fill="#6C63FF"/>
<path id="Vector_27" d="M186.94 177.18C224.181 177.18 254.37 146.991 254.37 109.75C254.37 72.5094 224.181 42.32 186.94 42.32C149.699 42.32 119.51 72.5094 119.51 109.75C119.51 146.991 149.699 177.18 186.94 177.18Z" fill="#E53935"/>
<path id="Vector_28" d="M201.81 174.57C201.81 166.971 195.652 160.81 188.055 160.81C180.458 160.81 174.3 166.971 174.3 174.57V198.04C174.3 205.639 180.458 211.8 188.055 211.8C195.652 211.8 201.81 205.639 201.81 198.04V174.57Z" fill="#FFE0B2"/>
<path id="Vector_29" d="M186.94 173.59C215.742 173.59 239.09 150.242 239.09 121.44C239.09 92.6383 215.742 69.29 186.94 69.29C158.138 69.29 134.79 92.6383 134.79 121.44C134.79 150.242 158.138 173.59 186.94 173.59Z" fill="#FFE0B2"/>
<path id="Vector_30" d="M169.55 110.2C171.29 110.2 172.7 108.79 172.7 107.05C172.7 105.31 171.29 103.9 169.55 103.9C167.81 103.9 166.4 105.31 166.4 107.05C166.4 108.79 167.81 110.2 169.55 110.2Z" fill="#DB7657"/>
<path id="Vector_31" d="M204.32 110.2C206.06 110.2 207.47 108.79 207.47 107.05C207.47 105.31 206.06 103.9 204.32 103.9C202.58 103.9 201.17 105.31 201.17 107.05C201.17 108.79 202.58 110.2 204.32 110.2Z" fill="#DB7657"/>
<path id="Vector_32" d="M199.82 138.99C199.82 143.2 194.05 146.62 186.93 146.62C179.81 146.62 174.06 143.16 174.06 138.99C174.06 134.82 199.82 134.78 199.82 138.99Z" fill="white"/>
<path id="Vector_33" d="M161.16 64.8C161.16 64.8 152.77 106.8 242.68 98.37L220.5 61.81L161.16 64.8Z" fill="#E53935"/>
<path id="Vector_34" d="M137.907 127.059C140.711 126.059 141.587 121.331 139.864 116.498C138.142 111.665 134.472 108.558 131.668 109.558C128.864 110.557 127.988 115.285 129.71 120.118C131.433 124.951 135.103 128.058 137.907 127.059Z" fill="#FFCFBE"/>
<path id="Vector_35" d="M194.58 103.91H181.54V110.2H194.58V103.91Z" fill="#6C63FF"/>
<path id="Vector_36" d="M267.29 166.06C268.842 166.06 270.1 164.802 270.1 163.25C270.1 161.698 268.842 160.44 267.29 160.44C265.738 160.44 264.48 161.698 264.48 163.25C264.48 164.802 265.738 166.06 267.29 166.06Z" fill="white"/>
<g id="Heart">
<g id="Group 1">
<path id="Vector_37" d="M187.5 267.213C183.697 263.429 178.546 261.31 173.181 261.323C167.815 261.336 162.675 263.48 158.89 267.283C155.106 271.087 152.987 276.237 153 281.603C153.013 286.968 155.157 292.109 158.96 295.893L187.64 324.423L216.17 295.753C218.099 293.883 219.636 291.647 220.691 289.176C221.747 286.706 222.299 284.049 222.317 281.363C222.335 278.676 221.817 276.013 220.794 273.528C219.771 271.044 218.264 268.788 216.36 266.893C214.456 264.997 212.193 263.5 209.704 262.489C207.215 261.477 204.549 260.971 201.863 261.001C199.176 261.031 196.523 261.596 194.057 262.662C191.591 263.729 189.362 265.276 187.5 267.213V267.213Z" fill="white"/>
</g>
</g>
<path id="Vector_38" d="M245.925 122.061C247.669 117.238 246.815 112.508 244.017 111.496C241.219 110.484 237.536 113.573 235.792 118.396C234.047 123.219 234.902 127.949 237.7 128.961C240.498 129.974 244.181 126.884 245.925 122.061Z" fill="#FFCFBE"/>
<path id="Vector_39" d="M167.46 195.61C169.57 195.61 171.28 193.9 171.28 191.79C171.28 189.68 169.57 187.97 167.46 187.97C165.35 187.97 163.64 189.68 163.64 191.79C163.64 193.9 165.35 195.61 167.46 195.61Z" fill="white"/>
<path id="Vector_40" d="M167.81 191.79H166.81C166.175 191.79 165.66 192.305 165.66 192.94V229.75C165.66 230.385 166.175 230.9 166.81 230.9H167.81C168.445 230.9 168.96 230.385 168.96 229.75V192.94C168.96 192.305 168.445 191.79 167.81 191.79Z" fill="white"/>
<path id="Vector_41" d="M210.56 195.61C212.67 195.61 214.38 193.9 214.38 191.79C214.38 189.68 212.67 187.97 210.56 187.97C208.45 187.97 206.74 189.68 206.74 191.79C206.74 193.9 208.45 195.61 210.56 195.61Z" fill="white"/>
<path id="Vector_42" d="M211.06 191.79H210.06C209.425 191.79 208.91 192.305 208.91 192.94V223.23C208.91 223.865 209.425 224.38 210.06 224.38H211.06C211.695 224.38 212.21 223.865 212.21 223.23V192.94C212.21 192.305 211.695 191.79 211.06 191.79Z" fill="white"/>
<path id="Vector_43" d="M158.53 132.44C172.553 132.44 183.92 121.073 183.92 107.05C183.92 93.0275 172.553 81.66 158.53 81.66C144.508 81.66 133.14 93.0275 133.14 107.05C133.14 121.073 144.508 132.44 158.53 132.44Z" fill="#6C63FF"/>
<path id="Vector_44" opacity="0.3" d="M158.53 124.84C168.355 124.84 176.32 116.875 176.32 107.05C176.32 97.2249 168.355 89.26 158.53 89.26C148.705 89.26 140.74 97.2249 140.74 107.05C140.74 116.875 148.705 124.84 158.53 124.84Z" fill="black"/>
<path id="Vector_45" d="M217.29 132.44C231.313 132.44 242.68 121.073 242.68 107.05C242.68 93.0275 231.313 81.66 217.29 81.66C203.267 81.66 191.9 93.0275 191.9 107.05C191.9 121.073 203.267 132.44 217.29 132.44Z" fill="#6C63FF"/>
<path id="Vector_46" opacity="0.3" d="M217.29 124.84C227.115 124.84 235.08 116.875 235.08 107.05C235.08 97.2249 227.115 89.26 217.29 89.26C207.465 89.26 199.5 97.2249 199.5 107.05C199.5 116.875 207.465 124.84 217.29 124.84Z" fill="black"/>
<path id="Vector_47" d="M622.49 507.94C622.16 531.39 602.37 549.94 578.91 549.94H575.65C572.764 549.926 569.988 551.046 567.92 553.06C566.35 554.532 565.256 556.441 564.78 558.54C564.558 559.385 564.447 560.256 564.45 561.13V602.54C564.462 610.501 562.185 618.297 557.89 625C551.645 634.496 548.257 645.585 548.13 656.95V656.95C548.13 659.604 547.602 662.232 546.577 664.681C545.551 667.129 544.048 669.349 542.156 671.21C540.264 673.072 538.02 674.538 535.555 675.523C533.09 676.509 530.454 676.994 527.8 676.95C516.8 676.75 508.23 667.32 508.23 656.35V645.94L502.79 646.58V656.95C502.79 659.605 502.262 662.234 501.236 664.683C500.209 667.132 498.706 669.352 496.812 671.214C494.919 673.075 492.674 674.541 490.208 675.526C487.742 676.511 485.105 676.995 482.45 676.95C471.45 676.75 462.88 667.32 462.88 656.35V651.06C457.44 653.32 426.61 653.32 418.05 651.13L415.73 650.95V656.95C415.73 659.605 415.202 662.234 414.176 664.683C413.149 667.132 411.646 669.352 409.752 671.214C407.859 673.075 405.614 674.541 403.148 675.526C400.682 676.511 398.045 676.995 395.39 676.95C384.39 676.75 375.82 667.32 375.82 656.35V647.73L374.01 647.57V657C374.019 659.657 373.496 662.288 372.473 664.74C371.45 667.192 369.948 669.415 368.054 671.278C366.16 673.142 363.913 674.608 361.445 675.59C358.976 676.573 356.336 677.052 353.68 677C343.68 676.82 335.61 668.93 334.29 659.19C334.174 658.264 334.114 657.333 334.11 656.4V612.97C334.101 598.104 339.084 583.666 348.26 571.97C349.853 569.898 350.744 567.373 350.806 564.761C350.867 562.148 350.094 559.584 348.6 557.44C338.44 542.57 323.43 517.44 323.91 499.68C324.04 494.53 325.46 490.01 328.67 486.51C328.87 486.29 329.07 486.07 329.27 485.87C343.88 470.57 369.62 482.61 367.39 503.65C366.64 510.686 367.162 517.799 368.93 524.65C369.954 528.527 371.337 532.299 373.06 535.92C374.763 539.561 377.571 542.573 381.085 544.526C384.598 546.48 388.638 547.275 392.63 546.8C395.345 546.475 398.076 546.311 400.81 546.31H484.7C489.624 546.309 494.425 544.765 498.426 541.895C502.428 539.026 505.43 534.974 507.01 530.31C507.858 527.866 508.287 525.297 508.28 522.71V457.44C508.279 455.739 508.62 454.055 509.283 452.488C509.945 450.921 510.916 449.504 512.137 448.319C513.357 447.134 514.804 446.207 516.39 445.592C517.976 444.978 519.67 444.688 521.37 444.74C523.029 444.796 524.661 445.187 526.166 445.888C527.671 446.589 529.019 447.586 530.13 448.82C532.403 451.326 533.665 454.587 533.67 457.97C533.67 458.853 533.844 459.728 534.182 460.544C534.521 461.36 535.017 462.101 535.642 462.725C536.267 463.349 537.009 463.844 537.825 464.181C538.642 464.518 539.517 464.691 540.4 464.69H579.92C585.571 464.687 591.166 465.808 596.38 467.988C601.594 470.168 606.321 473.364 610.288 477.389C614.254 481.414 617.38 486.188 619.484 491.433C621.587 496.678 622.626 502.29 622.54 507.94H622.49Z" fill="#F3AD55"/>
<path id="Vector_48" d="M373.39 661.9C372.267 666.251 369.712 670.097 366.136 672.818C362.561 675.539 358.173 676.977 353.68 676.9C343.68 676.72 335.61 668.83 334.29 659.09C346.37 655.83 363.11 653.58 373.39 661.9Z" fill="#FBDCA3"/>
<path id="Vector_49" d="M415.11 661.9C413.987 666.253 411.43 670.1 407.852 672.821C404.275 675.543 399.884 676.98 395.39 676.9C385.39 676.72 377.33 668.83 376.01 659.09C388.06 655.83 404.83 653.58 415.11 661.9Z" fill="#FBDCA3"/>
<path id="Vector_50" d="M502.17 661.9C501.047 666.253 498.49 670.1 494.912 672.821C491.335 675.543 486.944 676.98 482.45 676.9C472.45 676.72 464.39 668.83 463.07 659.09C475.15 655.83 491.89 653.58 502.17 661.9Z" fill="#FBDCA3"/>
<path id="Vector_51" d="M547.51 661.9C546.387 666.251 543.832 670.097 540.256 672.818C536.681 675.539 532.293 676.977 527.8 676.9C517.8 676.72 509.73 668.83 508.41 659.09C520.49 655.83 537.23 653.58 547.51 661.9Z" fill="#FBDCA3"/>
<path id="Vector_52" d="M368.93 524.64C354.84 518.98 337.64 508.64 323.93 499.64C324.06 494.49 325.48 489.97 328.69 486.47C328.89 486.25 329.09 486.03 329.29 485.83C343.9 470.53 369.64 482.57 367.41 503.61C366.65 510.654 367.165 517.778 368.93 524.64V524.64Z" fill="#FBDCA3"/>
<path id="Vector_53" d="M385.99 546.43C385.99 546.43 424.8 595.28 488.28 546.31Z" fill="#FBDCA3"/>
<path id="Vector_54" d="M508.23 455.63C508.23 455.63 531.81 486.46 508.23 524.55Z" fill="#FBDCA3"/>
<path id="Vector_55" d="M564.45 560.82C564.45 560.82 543.69 586.63 564.19 607.13Z" fill="#FBDCA3"/>
<path id="Vector_56" opacity="0.1" d="M566.27 555.38C564.73 556.83 565.27 558.23 564.78 560.38L497.35 542.72C500.97 539.92 505.47 536.6 506.96 532.18C515.06 538.42 531.06 548.94 566.27 555.38Z" fill="black"/>
<path id="Vector_57" d="M567.92 553.06C566.35 554.532 565.256 556.441 564.78 558.54L499.06 541.4C502.733 538.573 505.485 534.721 506.97 530.33C515.06 536.61 532.68 546.62 567.92 553.06Z" fill="#383F4D"/>
<path id="Vector_58" opacity="0.1" d="M509.43 533.96C509.43 533.96 529.99 549.43 564.43 554.22Z" fill="black"/>
<path id="Vector_59" d="M509.43 532.16C509.43 532.16 529.99 547.62 564.43 552.41Z" fill="#F3AD55"/>
<path id="Vector_60" opacity="0.1" d="M560.83 533.62C560.83 533.62 595.29 544.5 604.36 510.04L560.83 533.62Z" fill="black"/>
<path id="Vector_61" d="M560.83 531.8C560.83 531.8 595.29 542.69 604.36 508.22L560.83 531.8Z" fill="#FBDCA3"/>
<path id="Vector_62" d="M622.5 510.04C624.505 510.04 626.13 507.197 626.13 503.69C626.13 500.183 624.505 497.34 622.5 497.34C620.495 497.34 618.87 500.183 618.87 503.69C618.87 507.197 620.495 510.04 622.5 510.04Z" fill="#383F4D"/>
<path id="Vector_63" opacity="0.1" d="M347.71 634.28L354.97 576.28C354.97 576.28 333.2 610.74 347.71 634.28Z" fill="black"/>
<path id="Vector_64" d="M356.78 576.24C356.78 576.24 335.02 610.7 349.53 634.24L356.78 576.24Z" fill="#FBDCA3"/>
</g>
<defs>
<linearGradient id="paint0_linear" x1="158.12" y1="371.45" x2="158.12" y2="194.32" gradientUnits="userSpaceOnUse">
<stop stop-color="#808080" stop-opacity="0.25"/>
<stop offset="0.54" stop-color="#808080" stop-opacity="0.12"/>
<stop offset="1" stop-color="#808080" stop-opacity="0.1"/>
</linearGradient>
<linearGradient id="paint1_linear" x1="3994.71" y1="22942.9" x2="4762.83" y2="22942.9" gradientUnits="userSpaceOnUse">
<stop stop-color="#808080" stop-opacity="0.25"/>
<stop offset="0.54" stop-color="#808080" stop-opacity="0.12"/>
<stop offset="1" stop-color="#808080" stop-opacity="0.1"/>
</linearGradient>
<linearGradient id="paint2_linear" x1="5970.25" y1="22942.9" x2="6738.09" y2="22942.9" gradientUnits="userSpaceOnUse">
<stop stop-color="#808080" stop-opacity="0.25"/>
<stop offset="0.54" stop-color="#808080" stop-opacity="0.12"/>
<stop offset="1" stop-color="#808080" stop-opacity="0.1"/>
</linearGradient>
<linearGradient id="paint3_linear" x1="51822.4" y1="182260" x2="67434.9" y2="182260" gradientUnits="userSpaceOnUse">
<stop stop-color="#808080" stop-opacity="0.25"/>
<stop offset="0.54" stop-color="#808080" stop-opacity="0.12"/>
<stop offset="1" stop-color="#808080" stop-opacity="0.1"/>
</linearGradient>
<linearGradient id="paint4_linear" x1="18043.4" y1="27894.9" x2="19954.5" y2="27894.9" gradientUnits="userSpaceOnUse">
<stop stop-color="#808080" stop-opacity="0.25"/>
<stop offset="0.54" stop-color="#808080" stop-opacity="0.12"/>
<stop offset="1" stop-color="#808080" stop-opacity="0.1"/>
</linearGradient>
<linearGradient id="paint5_linear" x1="21860" y1="27894.9" x2="23771.5" y2="27894.9" gradientUnits="userSpaceOnUse">
<stop stop-color="#808080" stop-opacity="0.25"/>
<stop offset="0.54" stop-color="#808080" stop-opacity="0.12"/>
<stop offset="1" stop-color="#808080" stop-opacity="0.1"/>
</linearGradient>
<linearGradient id="paint6_linear" x1="36972.3" y1="42702.2" x2="36972.3" y2="0" gradientUnits="userSpaceOnUse">
<stop stop-color="#808080" stop-opacity="0.25"/>
<stop offset="0.54" stop-color="#808080" stop-opacity="0.12"/>
<stop offset="1" stop-color="#808080" stop-opacity="0.1"/>
</linearGradient>
<clipPath id="clip0">
<rect width="626.12" height="698.31" fill="white"/>
</clipPath>
</defs>
</svg>
